<?xml version="1.0" standalone="no"?>
<!DOCTYPE svg PUBLIC "-//W3C//DTD SVG 20010904//EN"
 "http://www.w3.org/TR/2001/REC-SVG-20010904/DTD/svg10.dtd">
<svg version="1.0" xmlns="http://www.w3.org/2000/svg"
 width="512.000000pt" height="512.000000pt" viewBox="0 0 512.000000 512.000000"
 preserveAspectRatio="xMidYMid meet">

<g transform="translate(0.000000,512.000000) scale(0.100000,-0.100000)"
fill="#000000" stroke="none">
<path d="M2350 4975 c-451 -71 -854 -415 -1000 -853 -64 -193 -63 -181 -69
-852 l-6 -615 -155 -6 c-85 -3 -168 -11 -185 -18 -123 -50 -155 -233 -59 -332
40 -41 84 -59 146 -59 20 0 39 -4 42 -9 4 -5 13 -46 21 -90 35 -180 135 -410
252 -574 73 -102 224 -256 323 -329 167 -122 354 -210 535 -253 61 -14 121
-29 135 -33 l25 -7 5 -350 c3 -239 9 -356 17 -370 34 -60 102 -95 183 -95 74
0 127 24 167 77 l28 36 5 350 c4 298 7 351 20 357 8 4 58 17 110 28 271 57
525 198 735 407 55 55 126 137 158 182 118 166 211 380 254 583 l18 85 61 6
c36 3 75 14 96 27 93 58 115 224 41 313 -44 52 -81 62 -253 68 l-155 6 -6 600
c-6 658 -8 679 -70 867 -145 439 -554 785 -1009 854 -116 17 -296 17 -410 -1z
m389 -150 c505 -82 891 -497 941 -1011 13 -137 13 -1360 -1 -1480 -28 -252
-128 -474 -294 -652 -133 -142 -256 -225 -446 -298 -131 -51 -245 -67 -419
-61 -185 6 -301 35 -455 112 -134 66 -215 127 -321 237 -150 157 -237 320
-290 548 -16 67 -18 153 -21 795 -3 500 -1 750 7 819 74 642 666 1093 1299
991z m-1445 -2351 c11 -11 16 -34 16 -77 0 -34 7 -103 15 -154 92 -570 561
-999 1145 -1049 109 -9 303 12 427 47 508 143 877 597 910 1119 3 52 10 103
15 113 8 15 26 17 153 17 137 0 145 -1 159 -22 20 -29 20 -34 -4 -58 -17 -17
-33 -20 -120 -20 l-100 0 0 -44 c0 -120 -64 -354 -136 -498 -85 -171 -241
-363 -387 -475 -192 -148 -428 -244 -676 -274 l-101 -12 0 -388 c0 -420 0
-419 -54 -419 -46 0 -46 2 -46 416 l0 391 -80 7 c-300 27 -600 170 -829 396
-214 212 -365 529 -387 818 l-7 82 -98 0 c-86 0 -102 3 -119 20 -23 23 -24 33
-10 61 10 17 23 19 155 19 117 0 146 -3 159 -16z"/>
<path d="M2430 4728 c-111 -11 -282 -70 -386 -132 -174 -104 -310 -250 -399
-431 -105 -213 -99 -154 -103 -1052 -3 -736 -2 -787 16 -875 48 -235 173 -439
361 -590 465 -373 1131 -275 1484 218 50 70 121 221 149 319 23 80 23 82 26
845 2 550 0 786 -8 840 -72 457 -440 808 -903 859 -107 12 -116 12 -237 -1z"/>
</g>
</svg>
